<svg preserveAspectRatio="xMidYMid meet" data-bbox="0.596 0.701 43.937 43.936" xmlns:xlink="http://www.w3.org/1999/xlink" xmlns="http://www.w3.org/2000/svg" viewBox="0 0 45 45" height="500" width="500" data-type="ugc" role="presentation" aria-hidden="true" aria-label="">
    <g>
        <use xlink:href="#e68bf796-42f8-4573-8174-d719ff337728" height="100%" width="100%" y="29.337" x="130.723" fill="#7f8585" transform="translate(-78.234 -719.24)"></use>
        <use xlink:href="#e68bf796-42f8-4573-8174-d719ff337728" height="100%" width="100%" y="29.337" x="494.766" fill="#7f8585" transform="translate(-78.234 -719.24)"></use>
        <g stroke-width=".936">
            <path fill="#ffffff" d="M44.533 22.671c0-12.132-9.838-21.97-21.966-21.97C10.43.7.596 10.537.596 22.67s9.834 21.967 21.97 21.967c12.129 0 21.967-9.834 21.967-21.967"></path>
            <path d="M18.25 38.5h.15c0-1.022.413-1.948 1.084-2.62a3.7 3.7 0 0 1 2.62-1.085c1.027 0 1.953.413 2.625 1.085a3.71 3.71 0 0 1-2.625 6.33 3.7 3.7 0 0 1-2.62-1.085A3.7 3.7 0 0 1 18.4 38.5h-.3a4.007 4.007 0 1 0 8.015.005A4.007 4.007 0 0 0 18.1 38.5" fill="#eb1928"></path>
            <path d="M18.775 36.556s.5-.192.989-.237c0 0-.176.705.054 1.351 0 0-.68.51-.901 1.006 0 0-.501-.522-.618-.797 0 0 .142-.839.476-1.323" fill="#eb1928"></path>
            <path d="M25.414 36.556s-.5-.192-.989-.237c0 0 .176.705-.054 1.351 0 0 .68.51.897 1.006 0 0 .5-.522.622-.797 0 0-.142-.839-.476-1.323" fill="#eb1928"></path>
            <path d="m21.329 39.6-.48-1.472 1.256-.914 1.256.914-.48 1.472" fill="#eb1928"></path>
            <path d="M22.805 34.72s.346.408.55.85c0 0-.721.071-1.255.505 0 0-.706-.475-1.244-.517 0 0 .321-.643.543-.851 0 0 .838-.142 1.406.012" fill="#eb1928"></path>
            <path d="M19.276 41.064s-.025-.538.087-1.014c0 0 .614.388 1.298.371 0 0 .267.81.667 1.173 0 0-.646.312-.947.338 0 0-.75-.401-1.105-.868" fill="#eb1928"></path>
            <path d="M24.88 41.064s.025-.538-.088-1.014c0 0-.613.388-1.297.371 0 0-.267.81-.672 1.173 0 0 .651.312.956.338 0 0 .746-.401 1.101-.868" fill="#eb1928"></path>
            <path d="m11.703 13.186-1.494-1.16-1.097 1.415 1.494 1.156-.393.5-3.425-2.658.388-.5 1.477 1.147 1.097-1.414-1.477-1.148.388-.5 3.43 2.662" fill="#eb1928"></path>
            <path d="M12.529 12.29 9.775 8.934l1.81-1.486.368.451-1.319 1.08.81.99 1.322-1.081.368.446-1.323 1.085.839 1.018 1.318-1.08.371.446" fill="#eb1928"></path>
            <path d="M14.477 9.234c.07.13.434.66.993.355.35-.188.484-.572.267-.976-.23-.43-.634-.33-.951-.292-.618.079-.772.083-1.04.008-.27-.075-.5-.309-.646-.576-.242-.446-.217-1.226.509-1.614.634-.342 1.318-.175 1.665.471l-.555.3c-.23-.42-.605-.383-.835-.262-.33.18-.35.576-.23.797.197.367.597.28.794.25.58-.075 1.351-.3 1.848.618.355.667.15 1.41-.55 1.79-.527.283-1.365.283-1.824-.568" fill="#eb1928"></path>
            <path d="M17.16 7.942c.046.138.3.73.91.538.38-.12.58-.471.446-.91-.15-.462-.56-.446-.88-.467-.622-.037-.777-.062-1.027-.187-.246-.126-.43-.401-.521-.689-.15-.48.02-1.243.8-1.49.69-.216 1.332.08 1.553.78l-.605.189c-.146-.46-.526-.493-.772-.418-.359.117-.45.501-.376.743.125.396.534.384.735.396.58.034 1.38-.041 1.694.952.229.726-.113 1.414-.872 1.656-.572.18-1.398.021-1.686-.905" fill="#eb1928"></path>
            <path d="m19.939 8.53-.697-4.281.626-.105.697 4.285" fill="#eb1928"></path>
            <path d="M21.566 7.023c.004.15.079.785.717.772.4-.004.697-.288.685-.742-.005-.489-.41-.585-.71-.697-.584-.213-.726-.28-.93-.472-.2-.187-.3-.504-.305-.81a1.18 1.18 0 0 1 1.19-1.197c.721-.016 1.251.451 1.264 1.185l-.63.009c-.009-.48-.363-.622-.622-.613-.376.004-.576.35-.572.6.009.418.405.522.593.589.55.196 1.34.35 1.356 1.393.012.756-.51 1.323-1.306 1.34-.597.008-1.344-.376-1.36-1.344" fill="#eb1928"></path>
            <path d="M27.87 5.806c-.091-.171-.366-.71-1.05-.864-.885-.2-1.74.367-1.94 1.26-.21.91.358 1.807 1.188 1.995.447.1.914-.021 1.281-.297l.76.171a2.24 2.24 0 0 1-2.178.693c-1.198-.275-1.94-1.506-1.67-2.708a2.23 2.23 0 0 1 2.675-1.685c.317.07.814.27 1.198.705.32.363.417.684.48.897" fill="#eb1928"></path>
            <path d="m30.274 10.463.905-1.657-1.573-.855-.9 1.656-.56-.3 2.074-3.813.555.304-.893 1.644 1.573.851.893-1.644.559.305-2.074 3.813" fill="#eb1928"></path>
            <path d="m31.278 11.146 2.866-3.254 1.757 1.544-.384.434-1.28-1.127-.848.96 1.285 1.126-.388.438-1.277-1.13-.876.993 1.281 1.126-.384.438" fill="#eb1928"></path>
            <path d="m35.454 12.3.259.35c.154.205.722.952 1.393.455.293-.217.505-.68.08-1.256l-.4-.538zm-.826 2.411.76-2.349-.005-.008-1.614 1.197-.38-.509 3.484-2.587.8 1.081c.364.488.435.83.397 1.143-.046.38-.292.718-.584.93-.922.69-1.644.021-1.81-.204l-.576 1.94" fill="#eb1928"></path>
            <path d="m4.86 16.722 4.177 1.176-.596 2.112-.56-.155.422-1.502L7.05 18l-.42 1.5-.564-.159.43-1.502-1.806-.509" fill="#eb1928"></path>
            <path d="M5.218 23.088c-.492-.034-.838-.222-1.08-.514a1.56 1.56 0 0 1-.305-1.034c.03-.4.196-.735.438-.99.28-.258.647-.4 1.14-.366l2.933.196-.042.63-2.912-.192c-.806-.054-.96.526-.977.76-.016.233.063.825.864.88l2.916.192-.041.634" fill="#eb1928"></path>
            <path d="M5.231 24.572c-.142.021-.767.176-.676.81.055.392.372.65.826.584.48-.067.53-.476.601-.789.138-.605.188-.755.35-.98.168-.226.468-.363.768-.405a1.19 1.19 0 0 1 1.34 1.035c.1.713-.296 1.297-1.022 1.402l-.088-.63c.476-.067.572-.434.534-.693-.054-.367-.417-.526-.668-.488-.413.058-.467.463-.513.66-.125.567-.183 1.372-1.214 1.518-.75.104-1.377-.346-1.49-1.135-.083-.592.21-1.377 1.165-1.515" fill="#eb1928"></path>
            <path d="M5.849 27.734c-.138.05-.722.317-.518.922.13.375.488.572.922.421.46-.154.43-.567.447-.888.025-.622.042-.776.163-1.027.12-.25.388-.442.675-.538.48-.163 1.244-.012 1.51.768.23.684-.05 1.33-.746 1.564l-.2-.596c.454-.159.48-.539.396-.78-.12-.355-.509-.443-.747-.36-.396.134-.375.543-.38.743-.02.58.071 1.381-.917 1.715-.714.246-1.415-.08-1.673-.834-.192-.568-.05-1.398.863-1.707" fill="#eb1928"></path>
            <path d="m8.29 30.404.259.447c.3.509.663.42.88.296.53-.313.234-.822.159-.943l-.242-.417zm-1.685.985.346.592c.321.555.793.45.98.338a.75.75 0 0 0 .297-.35c.125-.297-.021-.551-.13-.747l-.308-.526zm2.925-2.441.567.972c.617 1.06-.092 1.619-.355 1.777-.413.242-.717.138-.905.08 0 .208-.004.747-.584 1.089-.384.22-1.214.421-1.815-.614l-.655-1.114" fill="#eb1928"></path>
            <path d="m10.735 34.794.826-1.544-.008-.008-1.585.738zm-.872 1.786.601-1.231-1.072-1.13-1.26.53-.46-.49 4.281-1.785.393.413-2.016 4.18" fill="#eb1928"></path>
            <path d="m11.256 37.72 2.47-3.567.522.363-2.14 3.088 1.239.86-.33.475" fill="#eb1928"></path>
            <path d="m13.843 39.376 1.853-3.922.571.267-1.602 3.4 1.36.647-.246.522" fill="#eb1928"></path>
            <path d="m30.2 39.9-3.397-3.217.617-.284 2.504 2.437-.209-3.484.605-.28.226 4.673" fill="#eb1928"></path>
            <path d="m33.019 38.383-2.637-3.45 1.86-1.42.356.46-1.356 1.034.776 1.018 1.356-1.034.35.459-1.356 1.039.801 1.047 1.356-1.035.35.46" fill="#eb1928"></path>
            <path d="m34.664 34.228.284-.33c.17-.192.776-.91.141-1.46-.275-.238-.771-.342-1.243.2l-.438.505zm2.528.284-2.453-.234-.009.009 1.52 1.314-.414.48-3.28-2.842.881-1.014c.396-.463.718-.605 1.03-.634.38-.037.764.134 1.035.372.868.75.38 1.598.196 1.81l2.016.142" fill="#eb1928"></path>
            <path d="m38.22 31.996.326-.605c.305-.56-.025-.906-.221-1.014a.75.75 0 0 0-.45-.071c-.318.05-.464.304-.572.5l-.288.535zm-1.718-.935.246-.45c.283-.522.02-.785-.2-.906-.543-.292-.822.225-.893.35l-.23.422zm-1.89-.3.538-.993c.588-1.077 1.435-.764 1.702-.618.422.23.497.542.538.734.18-.108.643-.388 1.235-.062.393.213.993.818.422 1.869l-.618 1.135" fill="#eb1928"></path>
            <path d="m38.99 26.687-1.749.096v.013l1.452.976zm1.973-.188-1.356.134-.409 1.502 1.102.8-.171.648-3.755-2.73.146-.55 4.623-.45" fill="#eb1928"></path>
            <path d="m41.297 21.806-3.363 2.136v.013l3.35.008v.634l-4.339-.012.004-.693 3.309-2.103v-.008l-3.304-.013.004-.634 4.339.017" fill="#eb1928"></path>
            <path d="m40.368 19.104-.2-.73c-.205-.735-.793-1.444-1.945-1.127-.634.171-1.44.81-1.127 1.953l.205.742zm-3.463 1.602-.368-1.36c-.242-.868-.05-1.481.3-1.915.335-.418.81-.685 1.219-.797.563-.155 1.227-.105 1.619.12.605.351.889.881 1.051 1.47l.367 1.334" fill="#eb1928"></path>
            <path fill-rule="evenodd" d="M25.008 33.213c.184-.087.284-.258.367-.446-.12-.046-.313-.021-.475-.025.012.18.096.288.108.471m-1.606-.738c.154-.075.355-.1.471-.209.034-.15-.162-.292-.288-.367-.1.154-.196.309-.183.576m4.13-.71c-.133-.05-.258.105-.396.134.1.146.209.28.317.421a.9.9 0 0 0 .08-.555m-4.077-.892c-.1.096-.25.137-.317.262.096.017.192.038.317.025.004-.066.117-.262 0-.287m.263-.055c.017.13-.075.246-.03.317.21.009.63.017.869-.025-.176-.196-.51-.333-.839-.292m-6.813-.392c.05.159.204.438.421.526.054-.146.15-.255.13-.476-.15-.058-.476-.075-.551-.05m1.944-.238c.02.184.025.413.08.551.083-.188.262-.359.316-.576-.158-.02-.258.025-.396.025m-3.392-.396c.158-.038.213-.042.367-.075v-.397c-.209.1-.342.26-.367.472m9.784 1.368h1.869c.108-.254.263-.509.4-.776.134-.246.222-.592.522-.696.13.283.15.675.446.788.046-.217.08-.442.263-.526.184.213.159.63.501.685-.171-.572-.042-1.14.08-1.527l-2.659.004c-.066 1.08-.634 1.685-1.422 2.048m-3.497-1.656c.134-.142.388-.284.368-.5h-.393c.017.158-.037.387.025.5m-.867-.184c.17-.062.317-.154.392-.317h-.367c-.034.08-.025.205-.025.317m-4.002-.262c-.317-.021-.571-.092-.838.025a5 5 0 0 0 .033.696c.309.017.61-.008.676.25-.075.076-.167.134-.213.239.405-.1.639-.013 1.056 0 .042-.088.083-.25.175-.36.275.11.689-.233.93-.116-.008.13-.129.138-.133.263.334-.08.638-.075.972-.05.067-.159-.012-.33.025-.476.317-.113.672-.325.793-.55H18.82l-.03.008a.8.8 0 0 0-.358.125.6.6 0 0 0-.234-.159h-1.323zm-.342-.685c.146.055.238.171.372.234.062-.083.217-.08.262-.18-.1-.133-.5-.191-.634-.054m9.2-3.27-.016.045-.059-.004c-.133-.038-.221-.02-.405-.004-.671.054-1.744.784-1.485 1.719h3.63c.117-.668.48-1.127 1.106-1.223.367-.054.721.071 1.105.109.952.091 2.024.041 2.262-.714-.163.005-.246.038-.393.05-.058-.029-.05-.083-.095-.096l-.722-.004c-.434.455-1.465.409-2.132.184-.134-.025-.096-.209-.184-.255h-2.762c.084.059.146.109.15.192m-.968-.03c.1-.037.363-.133.635-.162h-.71zm-1.873-.162c-1.615.125-2.825.747-3.334 1.949h3.08c.154-.322.584-.351.922-.484.137-.68.6-1.031 1.022-1.227-.021-.08-.1-.238-.1-.238zm-8.908-.455c.059-.091.1-.2.159-.292a1 1 0 0 0-.317-.13c.02.176.041.343.158.422m1.394-.659c.067.067.062.205.133.263.067-.1.18-.15.184-.317-.104.02-.292-.046-.317.054m-2.316-.317c.059-.092.192-.108.263-.184-.083-.054-.046-.233-.154-.262-.084.1-.217.313-.109.446m1.056-1.577a1.25 1.25 0 0 0-.66-.13c.08.297.476.405.66.13m9.625-.476c-.567.914-2.178 1.06-3.471.739.054.208.117.35.242.492h5.42c-.61-.288-.98-.626-1.298-1.202-.321.005-.617.059-.893-.029m-9.392 1.002c-.041-.092-.02-.238-.025-.368-.246.084-.5.163-.605.393.1.204.372.204.539.204l5.945.004c.046-.154-.12-.35-.146-.521-.392-.03-.755-.155-1.101-.08-.288.063-.451.322-.714.368-.196-.263-.25-.639-.342-.947a3.5 3.5 0 0 0-.55-.263c-.823.58-1.736 1.068-3 1.21m15.386-.055c.121.088.576.451.685.476h1.08c.071-.317.159-.592.288-.818.08-.133.226-.233.213-.338-.275.05-.5.105-.66.263-.212.209-.154.589-.396.789-.242-.113-.417-.497-.63-.684-.3-.272-.734-.593-.446-1.185h-.684c-.042.083.012.258-.08.292-.204.025-.246-.23-.42-.292h-.527c.393.571.99 1.08 1.578 1.497M17.298 20.81h-.05c.142.33.505.38.839.513.046.317.1.622.238.843.513-.46 1.23-.317 1.998-.209.397.054.81.134 1.185.159.689.042 1.431-.155 1.84-.526.125-.117.125-.284.292-.396.363.083.872.125 1.156-.025l-.213-.363s-4.802-.013-7.285.004m-2.912-4.243c-.092.075-.15.238-.321.346.2.05.446.013.584-.083-.121-.155-.209-.238-.263-.263m13.936 1.756s-.167.092-.18-.058c.175-.964.901-1.494 1.757-1.728h-1.156c-.53.551-1.026 1.135-1.185 2.053h2.157c.242-.029.43-.183.63-.292.246-.13.472-.233.634-.392-.676.042-1.422.017-1.844.313-.07-.03-.087-.071-.104-.13.1-.145.317-.316.292-.5-.163.083-.33.213-.555.396zm-5.971-1.627c.263.33-.07.61-.396.63-.526.033-1.156-.371-1.444-.471-.088.358.02.496.209.63.096.066.313.07.262.263-.65.079-1.514-.284-2.157-.476-.179.438.096.772.263 1.026.059.121-.183.226-.054.246h6.868c.07-.07.05-.175.158-.22.15 0 .155.141.313.133-.008-.747.033-1.26 0-1.949h-4.915c.271.088.643.075.893.188m-6.342 1.682c.276-.155.413-.455.58-.472.104.017.117.446.159.638h1.865c.046-.091.18-.166.212-.27-.15-.385-.442-.535-.738-.764-.426-.33-.76-.743-1.156-1.077h-1.577c.263.601.626 1.11.655 1.945m-1.18-1.682c.083-.07.179-.138.208-.263-.284-.012-.288-.004-.526-.054a.8.8 0 0 0 .317.317m-1.63-1.106c.158-.029.237-.046.395-.029a.65.65 0 0 1 .05-.338c-.254.013-.358.184-.446.367m16.543-1.001h.263c-.013-.125.004-.284-.075-.342-.046.133-.155.2-.188.342m-15.475-.275c.234.012.3.012.484.012.004-.259-.434-.196-.484-.012m16.898.275c.108.025.187.025.367.025.062-.121.146-.363.079-.522-.104.21-.317.313-.447.497m-15.758-.71c-.025.21-.071.264-.105.476.176.009.292.021.526.025-.008-.217-.03-.421-.104-.58-.113.021-.23.034-.317.08m-1.577-.184c.091.154.12.371.262.476.055-.092.171-.113.213-.213-.096-.15-.22-.355-.475-.263m1.668-.05c.063 0 .117-.02.2-.03-.024-.195-.095-.195-.162-.241-.03.07-.02.167-.038.271m8.345-1.11c-.342.025-.643 0-.939.054-.893.167-1.36.756-1.973 1.185-.171.121-.463.167-.522.3.004.084.117.172.305.247l.008.067h5.603c-.012-.242-.233-.46-.158-.576.07-.05.12-.054.238-.063-.113-.258-.41-.33-.555-.555.025-.104.183-.079.213-.183-.226-.117-.4-.284-.685-.342-.079.275-.383.83-.684.63.23-.238.547-.4.472-.947-.434-.055-.88.154-1.323.183m4.614 5.42c.35-.23.718-.71 1.206-.63-.004.217-.133.305-.183.471.484-.066 1.335-.129 1.84-.104.033.163-.138.338-.234.422-.238.208-.697.438-1.106.63-.475.225-1.139.383-1.289.817-.138.405.067.964.292 1.235.08-.371.317-.642.68-.734.292-.075.601.033.922.025.334-.009.493-.209.735-.238.016.363-.15.638-.447.789-.325.17-.993.129-.868.763.059.284.426.43.634.66.109.12.109.27.263.342.167-.714.897-1.044 1.736-.923.075.046.054.113-.03.159-1.13.35-.9 1.936-1.05 3.233.116 0 .48-.112.604.055 0 .108-.108.213-.133.267a1.3 1.3 0 0 1-.1.204c-.397.58-1.577.647-2.604.5-.333-.045-.6-.116-.868-.05-.625.151-1.326 1.449-.237 1.628.496.083 1.356-.238 1.552.267.317.818-.618 1.694-.372 2.708.038.146.171.284.134.421-.547.03-.68-.204-.818-.471-.054.1.017.325-.13.338-.337-.109-.537-.355-.63-.71-.195.338-.387.701-.58 1.052.16.15.335.28.447.475-.146.35-.066.93-.421 1.081-.184-.15-.242-.43-.422-.58-.095.004-.108.096-.208.104-.092 0-.117-.062-.159-.104-.3.171-.488.46-.842.58-.03.104-.005.225-.21.209-.116.225-.341.546-.683.63-.075-.234-.084-.53-.184-.735-.146.038-.3.034-.35.009-.03-.067.07-.23.112-.38-.22-.029-.292.134-.421.159-.363-.125-.51.304-.839.213 0-.564.138-.968.392-1.215-.125-.212-.509-.175-.763-.258.209-.835 1.569-.797 1.998-.188 1.01-.296 1.757-1.076 1.632-2.34-.313.233-.588.638-.918.763.025-.317.096-.651 0-.947-.238.213-.25.642-.684.659-.146-.288-.159-.567-.292-.818-.33-.634-1.002-1.005-1.052-1.815-.204.067-.4.142-.576.238.13.93-.267 1.995-.792 2.604a1.6 1.6 0 0 1-.63.421c-.113-.184.091-.438.025-.734-.288.137-.472.5-.839.471-.05-.146.05-.317.025-.526-.375.163-.605.464-.976.63a.8.8 0 0 1-.03.393c-.058.062-.095.1-.258.108-.188.3-.288.693-.655.818-.134-.2-.038-.61-.188-.764-.117.009-.175.063-.263.025-.037-.083-.008-.116 0-.212-.187.012-.35.054-.521.083-.184.334-.25.784-.45 1.101-.326-.154-.54-.42-.656-.788-.15-.02-.271.104-.371.054-.092-.208.067-.367.133-.5-.112-.046-.242-.021-.346-.034 0 0-.15.004-.221.009-.059 0-.042-.067-.096-.063-.167.017-.413.054-.6.063-.01-.601.47-.71.713-1.056.22-.154.68-.004.759-.133.104-.155-.384-.213-.472-.338.109-.468.998-.41 1.21-.08.468-.016.785.284 1.077.526.45-.259.805-.622 1.051-1.076-.142-.046-.33.225-.55.104-.063-.61.279-1.047.58-1.527.638-1.026 1.593-1.435 3.05-1.656.442-.067.709-.347 1.08-.551-.042-.296-.713-.225-1.08-.292-.885-.159-1.753-.488-2.262-1.077-.213.272-.405.56-.684.76-.15-.284-.326-.626-.684-.576-.31.042-.46.6-.868.526-.025-.134-.063-.255-.055-.422-.175.317-.442.142-.813.134-.367-.013-.78.158-1.13.05-.201.425-.372.876-.79 1.08-.091-.179-.054-.492-.208-.605-.134-.02-.15.009-.267-.029-.013-.091.033-.125.054-.183-.517.192-.65.767-.893 1.239-.388-.146-.521-.86-.371-1.29-.338-.112-.522.155-.684.314-.455-.497.154-1.131.58-1.235-.071-.146-.1-.292.054-.367a2.3 2.3 0 0 0-.555-.397c.292-.526 1.147-.083 1.448.08.062.054-.008.237.054.287 1.118-.133 1.911-.592 2.658-1.105-.109-.263-.376-.363-.371-.735.083-.083.246-.083.342-.158-.025-.221-.063-.426-.08-.66-.237.063-.588.33-.788.109-.025-.13.112-.171.158-.292.117-.3.071-.693.021-1.08-.23.129-.471.437-.65.37-.06-.104-.042-.287-.055-.47-.037-.593-.35-1.127-.58-1.553-.238.205-.55.55-1.022.526-.167-.009-.438-.046-.45-.288.329-.07.4-.271.454-.513.004-.025-.092-.042-.096-.117.021-.096.155-.159.196-.267-.18-.188-.717.146-.738-.184-.192-.087-.384.034-.551.055-.167-.63.622-.885 1.13-.922-.1-.159-.241-.28-.32-.48-.013-.104.066-.121.054-.155a2.5 2.5 0 0 0-.313-.68c.25-.117.442-.129.676.005.096.058.142.217.27.338.068.062.201.025.264.079.133.104.154.296.238.367.242-.271.3-.868.42-1.344.23.038.376.305.447.501.188.513 0 1.19.263 1.606.259.405.735.952 1.027 1.26.45.489.905.84 1.368 1.24.083-.2.075-.488.238-.61.534.184 1.072.364 1.656.501-.167-.13-.267-.838.08-.943.292.18.85.48 1.26.522.15.017.446.008.446-.155.004-.22-.567-.166-.734-.212-.213-.055-.505-.196-.526-.342-.033-.217.238-.493.421-.497.184-.008.176.117.313.154.38.109.705-.045.868-.342-.964-.233-2.386.793-3.263.134-.438-.334-.183-1.152.501-.972.075.15-.217.28-.13.446.664.664 1.882.038 2.946.159.025-.601-.588-.217-.976-.159-.693.109-1.368-.23-1.206-.947-.154-.08-.283-.325-.137-.534.041-.046.137-.054.22-.058.764-.355 1.156-1.035 2.02-1.302.413-.13.889-.088 1.448-.159.413-.054.955-.25 1.393-.158.071.563.793.471.998.897-.005.108-.092.133-.184.158.171.205.426.33.526.605-.005.142-.2.096-.342.105.196.588.471 1.23.37 2.023-.108.059-.14-.054-.262-.05.138.542.109 1.302.075 1.97-.012.354.059.663 0 .921-.192-.004-.23-.17-.392-.208-.154.534-.58 1.051-.66 1.652-.02.188.072.367-.078.505-.197-.138-.464-.2-.605-.396-.184.396.233.621.37.867-.062.1-.212.105-.291.184.684 1.727 3.68 1.143 3.709 3.526.989.504 2.253.066 2.261-.893.009-.801-1.089-1.44-1.602-1.815a6.7 6.7 0 0 1-1.343-1.344c-.964-1.289-.655-3.237.53-4.339-.288-1.444 1.105-1.644 1.443-2.633.376.055.305.726.238 1.056.597-.23 1.14-.738 1.552-1.24.28.201.092.81-.029 1.21-.08.28-.196.593-.342.819-.205.325-.693.771-.997.917-.305.15-.622.159-.893.263-.367.146-.835.534-.947.977l-.025.025" fill="#eb1928"></path>
            <path fill-rule="evenodd" d="M22.32 13.699c-.024-.138-.195-.133-.312-.184.012.142.175.255.313.184m-.497-.421c.434.116.864.237.973.684-.188.046-.184-.096-.293-.13-.4.23-.817-.17-.68-.554" fill="#eb1928"></path>
        </g>
        <use xlink:href="#4616bdfb-b070-49e6-a046-b00a9f0f9fd5" height="100%" width="100%" y="184.367" x="496.36" fill="#211e1e" transform="translate(-78.234 -719.24)"></use>
        <use xlink:href="#6d7d28b3-b4b7-420b-8e7a-06cbdf5fe0e7" height="100%" width="100%" y="261.872" x="533.052" fill="#211e1e" transform="translate(-78.234 -719.24)"></use>
        <use xlink:href="#6d7d28b3-b4b7-420b-8e7a-06cbdf5fe0e7" height="100%" width="100%" y="261.872" x="551.498" fill="#211e1e" transform="translate(-78.234 -719.24)"></use>
        <use xlink:href="#6d7d28b3-b4b7-420b-8e7a-06cbdf5fe0e7" height="100%" width="100%" y="299.207" x="549.037" fill="#211e1e" transform="translate(-78.234 -719.24)"></use>
        <use xlink:href="#4616bdfb-b070-49e6-a046-b00a9f0f9fd5" height="100%" width="100%" y="273.372" x="236.051" fill="#211e1e" transform="translate(-78.234 -719.24)"></use>
        <use xlink:href="#6d7d28b3-b4b7-420b-8e7a-06cbdf5fe0e7" height="100%" width="100%" y="313.542" x="177.84" fill="#211e1e" transform="translate(-78.234 -719.24)"></use>
    </g>
</svg>